<svg width="1200" height="720" viewBox="0 0 1200 720" fill="none" xmlns="http://www.w3.org/2000/svg">
  <defs>
    <linearGradient id="bg" x1="0" y1="0" x2="1200" y2="720" gradientUnits="userSpaceOnUse">
      <stop stop-color="#EEF2FF"/>
      <stop offset="1" stop-color="#DBEAFE"/>
    </linearGradient>
    <linearGradient id="card" x1="160" y1="120" x2="1020" y2="610" gradientUnits="userSpaceOnUse">
      <stop stop-color="#FFFFFF" stop-opacity="0.96"/>
      <stop offset="1" stop-color="#F8FAFC" stop-opacity="0.96"/>
    </linearGradient>
  </defs>

  <rect width="1200" height="720" rx="28" fill="url(#bg)"/>
  <circle cx="1020" cy="140" r="86" fill="#C7D2FE" fill-opacity="0.5"/>
  <circle cx="180" cy="620" r="124" fill="#BFDBFE" fill-opacity="0.45"/>

  <rect x="140" y="104" width="920" height="520" rx="28" fill="url(#card)"/>

  <rect x="198" y="180" width="326" height="326" rx="24" fill="#E9EFFF"/>
  <path d="M236 456C264 388 334 356 390 372C434 384 474 420 488 468" stroke="#2F6BFF" stroke-width="18" stroke-linecap="round"/>
  <circle cx="346" cy="286" r="56" fill="#2F6BFF" fill-opacity="0.16"/>
  <path d="M320 286H372" stroke="#2F6BFF" stroke-width="14" stroke-linecap="round"/>
  <path d="M346 260V312" stroke="#2F6BFF" stroke-width="14" stroke-linecap="round"/>

  <g fill="#2F6BFF">
    <rect x="592" y="204" width="408" height="18" rx="9" fill-opacity="0.26"/>
    <rect x="592" y="248" width="340" height="18" rx="9" fill-opacity="0.22"/>
    <rect x="592" y="340" width="364" height="16" rx="8" fill-opacity="0.18"/>
    <rect x="592" y="380" width="306" height="16" rx="8" fill-opacity="0.16"/>
  </g>

  <rect x="592" y="434" width="230" height="52" rx="14" fill="#2F6BFF"/>
  <path d="M648 460H764" stroke="#FFFFFF" stroke-width="10" stroke-linecap="round"/>
  <circle cx="846" cy="462" r="38" fill="#2F6BFF" fill-opacity="0.14"/>
  <path d="M828 462L842 476L866 448" stroke="#2F6BFF" stroke-width="8" stroke-linecap="round" stroke-linejoin="round"/>
</svg>
